<?xml version="1.0" encoding="utf-8"?>
<!-- Generator: Adobe Illustrator 16.0.0, SVG Export Plug-In . SVG Version: 6.00 Build 0)  -->
<svg version="1.2" baseProfile="tiny" id="Layer_1" xmlns="http://www.w3.org/2000/svg" xmlns:xlink="http://www.w3.org/1999/xlink"
	 x="0px" y="0px"  viewBox="0 0 3000 3000" xml:space="preserve">
<g>
	<path fill="#19609C" d="M252.774,1149.6c77.128-18.473,160.934-14.574,234.39,16.594c70.688,29.646,126.508,90.047,153.923,161.309
		c26.021,63.646,29.088,133.666,26.503,201.596c-0.749,15.906-16.908,27.086-32.134,25.984c-122.646,0.123-245.338,0-367.984,0.02
		c-20.477,0.262-41.21-1.564-61.41,2.729c-5.918,41.902,11.19,85.924,42.754,113.852c29.467,26.979,70.153,38.779,109.503,39.836
		c35.107,0.666,71.349-2.076,103.538-17.24c21.344-9.494,39.677-24.109,58.733-37.318c7.128-5.451,18.631-9.176,25.092-0.693
		c28.405,27.518,59.211,52.586,86.396,81.23c8.774,10.826-3.451,22.59-11.852,28.959c-83,61.4-185.964,103.293-290.743,93.693
		c-77.462-4.303-157.836-27.754-214.241-83.477c-55.641-53.176-81.487-129.766-90.113-204.58
		c-10.19-96.016-2.785-198.17,45.113-283.939C108.215,1219.051,176.128,1167.852,252.774,1149.6 M233.426,1337.518
		c-20.005,27.811-28.215,62.436-29.615,96.236c93.994-0.088,187.934-0.047,281.877-0.047c-2.596-34.088-9.847-69.322-30.897-97.139
		C403.446,1267.395,284.195,1267.994,233.426,1337.518z"/>
	<path fill="#19609C" d="M2127.457,1246.404c-0.437-8.881,0.953-21.635,12.21-22.527c25.533-1.217,51.144-0.539,76.692-0.334
		c6.964-0.281,14.513,5.877,14.185,13.133c1.107,23.934,0,47.883,0.328,71.873c22.153,0.322,44.364-0.621,66.533,0.281
		c7.743-0.719,14.056,6.703,13.697,14.129c0.56,20.881,0.358,41.738,0.153,62.619c0.949,7.463-3.59,14.662-10.42,17.533
		c-20.128,2.852-40.744-1.25-60.826,2.283c-7.595,1.723-9.082,11.088-8.8,17.631c-0.036,51.092,0.154,102.256-0.036,153.322
		c0.369,17.545,1.462,38.148,16.139,50.113c14.801,12.902,35.754,5.492,53.457,8.625c4.656,2.621,10.205,6.795,10.103,12.795
		c0.954,20.902,0.667,41.918,0.174,62.842c0.231,7.057-5.62,15.184-13.308,14.318c-40.836-0.057-85.871,5.877-121.836-17.949
		c-34.087-21.246-48.144-63.334-48.271-101.867C2127.246,1485.625,2127.651,1365.994,2127.457,1246.404"/>
	<path fill="#19609C" d="M2800.815,1224.6c26.369-2.656,53.118-0.98,79.636-0.98c9.749-0.559,15.77,9.236,14.293,18.104
		c0.148,111.553,0,223.129,0.051,334.691c0.666,18.35,1.379,40.863,18.549,51.986c18.098,13.174,43.568-1.344,61.518,10.963
		c7.088,14.426,2.268,31.549,3.749,47.107c-1.308,12.482,4.056,29.072-7.923,37.795c-43.708,1.078-92.082,7.6-130.867-17.332
		c-34.107-21.287-48.677-63.309-48.215-102.012c-0.107-119.395,0.071-238.77-0.107-358.168
		C2791.682,1238.676,2790.872,1227.25,2800.815,1224.6"/>
	<path fill="#19609C" d="M1300.2,1343.676c46.189-47.035,117.472-61.061,180.697-49.605c48.185,7.602,94,34.754,120.446,76.211
		c31.852,47.303,38.344,107.031,33.467,162.539c-2.23,8.867-12.262,12.107-20.441,11.225c-81.282,0-162.559,0-243.841-0.057
		c-6.052,0.416-13.8-1.045-16.729,5.832c-1.174,28.646,12.774,58.195,37.605,73.322c28.954,18.934,65.811,18.549,98.62,12.621
		c25.057-4.77,44.113-22.719,65.811-34.77c20.133,18.98,42.395,36.031,60.446,57.139c-0.282,9.395-8.765,14.445-15.385,19.58
		c-47.4,32.799-104.164,56.07-162.743,52.723c-53.99-1.092-111.145-18.104-147.482-60.098
		c-38.118-43.723-48.867-104.281-48.585-160.637C1241.58,1450.152,1257.667,1387.332,1300.2,1343.676 M1374.349,1408.291
		c-14.8,17.258-18.984,40.365-21.519,62.252c57.298,0.041,114.544,0,171.867,0.041c-0.846-32.719-15.262-68.518-46.964-82.369
		C1443.928,1373.436,1398.559,1378.354,1374.349,1408.291z"/>
	<path fill="#19609C" d="M1798.287,1330.934c36.744-29.441,84.682-46.914,131.975-38.889c42.23,4.416,82.246,27.857,104.513,64.406
		c23.79,36.764,23.754,82.281,23.221,124.445c-0.103,74.877,0,149.77,0,224.646c1.041,8.461-3.646,20.416-13.811,19.549
		c-28.748,0.559-57.548,0.559-86.241,0c-7.984,0.896-14.143-7.088-13.369-14.461c-0.44-78.236,0.227-156.467-0.226-234.643
		c-0.159-29.527-8.42-63.656-35.882-79.41c-24.605-12.717-56.154-11.824-80.133,1.98c-22,12.615-33.421,38.467-32.934,63.199
		c-0.308,81.334,0.021,162.615-0.103,243.898c0.948,8.461-3.313,20.113-13.601,19.389c-28.723,0.611-57.559,0.441-86.328,0.072
		c-10.543,1.035-14.902-11.102-13.748-19.688c0.076-130.691-0.107-261.4,0.076-392.111c-1.23-8.432,5.186-17.232,13.877-17.74
		c19.113-1,38.298,0.021,57.508-0.42c13.098,0.158,27.651-2.025,38.683,6.861
		C1792.267,1311.979,1789.934,1323.395,1798.287,1330.934"/>
	<path fill="#19609C" d="M2511.436,1293.543c51.252-8.322,106.596-0.846,150.924,27.303c40.789,25.984,68.098,69.877,78.23,116.738
		c7.313,29.98,6.518,61.117,5.641,91.688c0.134,9.605-9.938,15.568-18.687,14.625c-70.108,0.385-140.205,0-210.369,0.154
		c-17.811,0.309-36.041-1.918-53.492,2.924c0.82,24.281,7.543,49.727,26.189,66.537c29.164,27.959,73.431,29.293,110.989,22.365
		c24.615-4.596,43.108-22.385,64.508-33.811c7.323,1.975,12.175,8.723,17.872,13.467c15.226,15.748,33.6,28.471,46.549,46.379
		c-51.908,46.775-123.441,74.734-193.806,67.842c-49.041-3.186-99.672-20.365-132.989-57.971
		c-38.272-42.496-49.815-101.953-49.866-157.563c-1.201-57.15,11.979-117.523,50.097-161.801
		C2430.344,1320.139,2470.062,1299.969,2511.436,1293.543 M2479.867,1415.754c-10.646,16.234-14.364,35.732-15.924,54.742
		c57.473,0.119,114.979,0.088,172.539,0.047c-2.872-19.928-6.077-40.805-18.211-57.457
		C2587.103,1368.066,2509.01,1369,2479.867,1415.754z"/>
	<path fill="#F2791A" d="M809.431,1182.738c13.323-5.154,28.554-1.236,38.821,8.41c63.379,53.691,106.112,129.533,124.732,210.035
		c26.856,118.605,8.031,249.826-62.841,350.107c-20.062,28.529-43.595,54.971-71.251,76.369
		c-12.216,9.99-31.765,10.314-43.369-0.947c-21.062-18.729-42.072-37.504-62.651-56.723c-10.61-8.391-10.328-25.094,0.713-32.939
		c63.759-57.527,102.625-141.672,104.251-227.631c1.057-84.133-30.226-171.031-94.369-227.297
		c-7.154-6.697-18.333-15.262-12.554-26.395c8.082-15.006,23.303-24.129,35.159-35.857
		C780.688,1207.764,792.949,1192.451,809.431,1182.738"/>
</g>
</svg>
